<svg id="GOOD_LOGO" data-name="GOOD LOGO" xmlns="http://www.w3.org/2000/svg" viewBox="0 0 160.81 60.9"><defs><style>.cls-1{fill:#1a1a1a;}</style></defs><title>text</title><path class="cls-1" d="M1.61,2.71v9H13.27v2.17H1.61V26.66H0V0.48H13.89V2.71H1.61Z"/><path class="cls-1" d="M23.16,26.66V0.48h1.59V26.66H23.16Z"/><path class="cls-1" d="M52.66,26.66L37.43,3.6V26.66H35.83V0.48h1.76L52.82,23.61V0.48h1.57V26.66H52.66Z"/><path class="cls-1" d="M72.56,2.65v24H71v-24H63V0.48H80.54V2.65h-8Z"/><path class="cls-1" d="M89.15,26.66V0.48h14.61V2.71H90.89v9h12.22v2.17H90.89V24.43h13.06v2.23H89.15Z"/><path class="cls-1" d="M130.2,25.63a13.75,13.75,0,0,1-1.87.82,12.74,12.74,0,0,1-2,.53,13.38,13.38,0,0,1-2.33.19,11.62,11.62,0,0,1-3-.38,9.92,9.92,0,0,1-2.67-1.14,10,10,0,0,1-2.25-1.9,11.23,11.23,0,0,1-1.73-2.64,14.71,14.71,0,0,1-1.11-3.39,20.47,20.47,0,0,1-.39-4.14,20.47,20.47,0,0,1,.39-4.13,14.69,14.69,0,0,1,1.11-3.39A11.27,11.27,0,0,1,116,3.42a9.89,9.89,0,0,1,4.91-3A11.58,11.58,0,0,1,124,0a13.38,13.38,0,0,1,2.33.19,12.74,12.74,0,0,1,2,.53,14.61,14.61,0,0,1,1.87.81q0.9,0.47,1.82,1V5.43a16.69,16.69,0,0,0-1.56-1.3,11,11,0,0,0-1.79-1.07,10.63,10.63,0,0,0-2.06-.72,9.93,9.93,0,0,0-2.35-.27,10.75,10.75,0,0,0-4.38.82,8,8,0,0,0-3.06,2.32A9.79,9.79,0,0,0,115,8.83a18,18,0,0,0-.58,4.75,17.9,17.9,0,0,0,.58,4.75,9.8,9.8,0,0,0,1.79,3.61,8,8,0,0,0,3.06,2.31,10.86,10.86,0,0,0,4.38.81,10.18,10.18,0,0,0,2.37-.27A10.88,10.88,0,0,0,130.52,23a13.13,13.13,0,0,0,1.5-1.27v2.84Q131.1,25.15,130.2,25.63Z"/><path class="cls-1" d="M159.22,26.66V13.93h-15.7V26.66h-1.59V0.48h1.59V11.76h15.7V0.48h1.59V26.66h-1.59Z"/><path class="cls-1" d="M0,60.38V34.2H1.59V60.38H0Z"/><path class="cls-1" d="M25.19,60.38L10,37.32V60.38H8.45V34.2H10.2L25.36,57.33V34.2h1.56V60.38H25.19Z"/><path class="cls-1" d="M47.86,38.07q-0.5-.36-1.14-0.77a8.65,8.65,0,0,0-1.48-.73A12,12,0,0,0,43.36,36,11.3,11.3,0,0,0,41,35.8a12.69,12.69,0,0,0-2.74.27,5.87,5.87,0,0,0-2,.83A3.76,3.76,0,0,0,35,38.32a4.43,4.43,0,0,0-.44,2A3.52,3.52,0,0,0,35,42.09,4.5,4.5,0,0,0,36.1,43.4a8.73,8.73,0,0,0,1.65,1q0.95,0.47,2,.88l2.19,0.83q1.12,0.42,2.18.91a16.87,16.87,0,0,1,2,1.09,7.65,7.65,0,0,1,1.65,1.4,6.09,6.09,0,0,1,1.53,4.21,8.06,8.06,0,0,1-.37,2.56,6.16,6.16,0,0,1-1,1.89,5.71,5.71,0,0,1-1.47,1.31,8,8,0,0,1-1.8.83,10.85,10.85,0,0,1-2,.43,16.82,16.82,0,0,1-2,.12,15.9,15.9,0,0,1-4.12-.5A17.87,17.87,0,0,1,33,59V56.13a9.59,9.59,0,0,0,3.65,2.12,14.12,14.12,0,0,0,4,.57,13.47,13.47,0,0,0,2.77-.27,6.69,6.69,0,0,0,2.2-.85,4.09,4.09,0,0,0,1.44-1.51,4.68,4.68,0,0,0,.51-2.29A4.18,4.18,0,0,0,47.24,52a4.74,4.74,0,0,0-1.12-1.44,7.84,7.84,0,0,0-1.65-1.1q-0.95-.48-2-0.89t-2.18-.8q-1.12-.39-2.18-0.85a16.73,16.73,0,0,1-2-1,7.42,7.42,0,0,1-1.65-1.34,5.94,5.94,0,0,1-1.12-1.78,6.15,6.15,0,0,1-.41-2.34,7.57,7.57,0,0,1,.33-2.33,5.7,5.7,0,0,1,.91-1.76,5.53,5.53,0,0,1,1.35-1.25,7.21,7.21,0,0,1,1.66-.8A10.21,10.21,0,0,1,39,33.86a13.54,13.54,0,0,1,1.88-.13,13.24,13.24,0,0,1,1.92.13,16.41,16.41,0,0,1,1.75.35q0.84,0.22,1.65.5t1.63,0.61v2.74Z"/><path class="cls-1" d="M62.28,36.37v24H60.71v-24H52.78V34.2H70.22v2.17H62.28Z"/><path class="cls-1" d="M74.63,60.38V34.2h1.59V60.38H74.63Z"/><path class="cls-1" d="M90.15,36.37v24H88.58v-24H80.65V34.2H98.08v2.17H90.15Z"/><path class="cls-1" d="M119.4,55.72a7.44,7.44,0,0,1-1.65,2.76A7.33,7.33,0,0,1,115,60.27a12.07,12.07,0,0,1-7.69,0,7.18,7.18,0,0,1-4.41-4.54,11,11,0,0,1-.55-3.57v-18h1.59V52.34a6.71,6.71,0,0,0,.46,2.49,5.71,5.71,0,0,0,1.38,2A6.64,6.64,0,0,0,108,58.27a9.69,9.69,0,0,0,6.23,0,6.65,6.65,0,0,0,2.26-1.39,5.71,5.71,0,0,0,1.38-2,6.71,6.71,0,0,0,.46-2.49V34.2h1.59v18A11,11,0,0,1,119.4,55.72Z"/><path class="cls-1" d="M133.72,36.37v24h-1.57v-24h-7.93V34.2h17.44v2.17h-7.93Z"/><path class="cls-1" d="M146.06,60.38V34.2H160.6v2.23H147.79v9h12.16v2.17H147.79V58.15h13v2.23H146.06Z"/></svg>